<svg xmlns="http://www.w3.org/2000/svg" xmlns:xlink="http://www.w3.org/1999/xlink" width="307" zoomAndPan="magnify" viewBox="0 0 230.25 230.25" height="307" preserveAspectRatio="xMidYMid meet" version="1.0"><defs><g/><clipPath id="97d327d600"><path d="M 0 0 L 228.902344 0 L 228.902344 228.902344 L 0 228.902344 Z M 0 0 " clip-rule="nonzero"/></clipPath><clipPath id="8cc89021a5"><path d="M 114.449219 0 C 51.242188 0 0 51.242188 0 114.449219 C 0 177.660156 51.242188 228.902344 114.449219 228.902344 C 177.660156 228.902344 228.902344 177.660156 228.902344 114.449219 C 228.902344 51.242188 177.660156 0 114.449219 0 Z M 114.449219 0 " clip-rule="nonzero"/></clipPath><clipPath id="5b582e6be6"><path d="M 0 0 L 228.902344 0 L 228.902344 228.902344 L 0 228.902344 Z M 0 0 " clip-rule="nonzero"/></clipPath><clipPath id="5ec51aa4cb"><path d="M 114.449219 0 C 51.242188 0 0 51.242188 0 114.449219 C 0 177.660156 51.242188 228.902344 114.449219 228.902344 C 177.660156 228.902344 228.902344 177.660156 228.902344 114.449219 C 228.902344 51.242188 177.660156 0 114.449219 0 Z M 114.449219 0 " clip-rule="nonzero"/></clipPath><clipPath id="2bcdecae39"><rect x="0" width="229" y="0" height="229"/></clipPath><clipPath id="f1d75c5ff4"><path d="M 71.84375 128 L 157.179688 128 L 157.179688 202.816406 L 71.84375 202.816406 Z M 71.84375 128 " clip-rule="nonzero"/></clipPath><clipPath id="f57114a71e"><path d="M 75.222656 140.164062 C 68.316406 151.546875 73.183594 162.625 79.300781 168.503906 L 115.0625 202.816406 L 150.074219 168.628906 C 155.761719 162.300781 157.941406 155.59375 156.730469 148.121094 C 155.058594 137.785156 146.542969 129.769531 136.019531 128.625 C 129.570312 127.929688 123.335938 129.753906 118.46875 133.796875 C 117.160156 134.886719 115.992188 136.101562 114.972656 137.421875 C 113.761719 135.917969 112.339844 134.542969 110.738281 133.320312 C 105.140625 129.070312 98.019531 127.382812 91.179688 128.695312 C 84.703125 129.945312 78.886719 134.125 75.222656 140.164062 Z M 75.222656 140.164062 " clip-rule="nonzero"/></clipPath><clipPath id="548658f87a"><path d="M 0.84375 0.222656 L 86.179688 0.222656 L 86.179688 74.816406 L 0.84375 74.816406 Z M 0.84375 0.222656 " clip-rule="nonzero"/></clipPath><clipPath id="5860f6e002"><path d="M 4.222656 12.164062 C -2.683594 23.546875 2.183594 34.625 8.300781 40.503906 L 44.0625 74.816406 L 79.074219 40.628906 C 84.761719 34.300781 86.941406 27.59375 85.730469 20.121094 C 84.058594 9.785156 75.542969 1.769531 65.019531 0.625 C 58.570312 -0.0703125 52.335938 1.753906 47.46875 5.796875 C 46.160156 6.886719 44.992188 8.101562 43.972656 9.421875 C 42.761719 7.917969 41.339844 6.542969 39.738281 5.320312 C 34.140625 1.070312 27.019531 -0.617188 20.179688 0.695312 C 13.703125 1.945312 7.886719 6.125 4.222656 12.164062 Z M 4.222656 12.164062 " clip-rule="nonzero"/></clipPath><clipPath id="74f73bbabb"><rect x="0" width="87" y="0" height="75"/></clipPath><clipPath id="7f9ee46913"><path d="M 26.085938 26.082031 L 202.511719 26.082031 L 202.511719 76 L 26.085938 76 Z M 26.085938 26.082031 " clip-rule="nonzero"/></clipPath></defs><g clip-path="url(#97d327d600)"><g clip-path="url(#8cc89021a5)"><g transform="matrix(1, 0, 0, 1, 0, -0.000000000000001213)"><g clip-path="url(#2bcdecae39)"><g clip-path="url(#5b582e6be6)"><g clip-path="url(#5ec51aa4cb)"><path fill="#ffacca" d="M 0 0 L 228.902344 0 L 228.902344 228.902344 L 0 228.902344 Z M 0 0 " fill-opacity="1" fill-rule="nonzero"/></g></g></g></g></g></g><g clip-path="url(#f1d75c5ff4)"><g clip-path="url(#f57114a71e)"><g transform="matrix(1, 0, 0, 1, 71, 128)"><g clip-path="url(#74f73bbabb)"><g clip-path="url(#548658f87a)"><g clip-path="url(#5860f6e002)"><path fill="#ffffff" d="M 0.84375 0.257812 L 86.179688 0.257812 L 86.179688 74.816406 L 0.84375 74.816406 Z M 0.84375 0.257812 " fill-opacity="1" fill-rule="nonzero"/></g></g></g></g></g></g><path fill="#ffffff" d="M 152.65625 111.902344 C 142.839844 102.164062 129.335938 96.136719 114.445312 96.136719 C 99.554688 96.136719 86.050781 102.164062 76.234375 111.902344 L 75.921875 112.210938 L 88.304688 124.59375 L 88.613281 124.285156 C 95.261719 117.714844 104.382812 113.648438 114.445312 113.648438 C 124.503906 113.648438 133.628906 117.714844 140.277344 124.285156 L 140.585938 124.59375 L 152.964844 112.210938 Z M 152.65625 111.902344 " fill-opacity="1" fill-rule="nonzero"/><path fill="#ffffff" d="M 177.414062 87.148438 C 161.253906 71.066406 138.988281 61.109375 114.445312 61.109375 C 89.898438 61.109375 67.636719 71.066406 51.476562 87.148438 L 51.167969 87.457031 L 63.542969 99.835938 L 63.855469 99.527344 C 76.84375 86.613281 94.726562 78.621094 114.445312 78.621094 C 134.164062 78.621094 152.042969 86.613281 165.035156 99.527344 L 165.34375 99.835938 L 177.722656 87.457031 Z M 177.414062 87.148438 " fill-opacity="1" fill-rule="nonzero"/><g clip-path="url(#7f9ee46913)"><path fill="#ffffff" d="M 202.167969 62.390625 C 179.664062 39.96875 148.648438 26.082031 114.445312 26.082031 C 80.242188 26.082031 49.226562 39.96875 26.722656 62.390625 L 26.410156 62.703125 L 38.789062 75.078125 L 39.097656 74.769531 C 58.429688 55.515625 85.070312 43.597656 114.445312 43.597656 C 143.820312 43.597656 170.457031 55.519531 189.789062 74.769531 L 190.101562 75.082031 L 202.476562 62.703125 Z M 202.167969 62.390625 " fill-opacity="1" fill-rule="nonzero"/></g><path fill="#ffffff" d="M 128.632812 150.808594 C 128.632812 149.882812 128.542969 148.96875 128.363281 148.0625 C 128.183594 147.152344 127.914062 146.273438 127.5625 145.417969 C 127.207031 144.5625 126.773438 143.753906 126.261719 142.984375 C 125.746094 142.214844 125.164062 141.503906 124.507812 140.847656 C 123.855469 140.195312 123.144531 139.609375 122.375 139.097656 C 121.605469 138.582031 120.792969 138.148438 119.9375 137.796875 C 119.085938 137.441406 118.203125 137.175781 117.296875 136.992188 C 116.390625 136.8125 115.472656 136.722656 114.546875 136.722656 C 113.625 136.722656 112.707031 136.8125 111.800781 136.992188 C 110.894531 137.175781 110.011719 137.441406 109.160156 137.796875 C 108.304688 138.148438 107.492188 138.582031 106.722656 139.097656 C 105.953125 139.609375 105.242188 140.195312 104.589844 140.847656 C 103.933594 141.503906 103.351562 142.214844 102.835938 142.984375 C 102.324219 143.753906 101.890625 144.5625 101.535156 145.417969 C 101.183594 146.273438 100.914062 147.152344 100.734375 148.0625 C 100.554688 148.96875 100.464844 149.882812 100.464844 150.808594 C 100.464844 151.734375 100.554688 152.648438 100.734375 153.554688 C 100.914062 154.464844 101.183594 155.34375 101.535156 156.199219 C 101.890625 157.054688 102.324219 157.863281 102.835938 158.632812 C 103.351562 159.402344 103.933594 160.113281 104.589844 160.769531 C 105.242188 161.421875 105.953125 162.007812 106.722656 162.519531 C 107.492188 163.035156 108.304688 163.46875 109.160156 163.820312 C 110.011719 164.175781 110.894531 164.441406 111.800781 164.625 C 112.707031 164.804688 113.625 164.894531 114.546875 164.894531 C 115.472656 164.894531 116.390625 164.804688 117.296875 164.625 C 118.203125 164.441406 119.085938 164.175781 119.9375 163.820312 C 120.792969 163.46875 121.605469 163.035156 122.375 162.519531 C 123.144531 162.007812 123.855469 161.421875 124.507812 160.769531 C 125.164062 160.113281 125.746094 159.402344 126.261719 158.632812 C 126.773438 157.863281 127.207031 157.054688 127.5625 156.199219 C 127.914062 155.34375 128.183594 154.464844 128.363281 153.554688 C 128.542969 152.648438 128.632812 151.734375 128.632812 150.808594 " fill-opacity="1" fill-rule="nonzero"/><g fill="#ffacca" fill-opacity="1"><g transform="translate(95.393167, 177.125278)"><g><path d="M 9.953125 -13.390625 L 14.703125 -22.765625 L 19.90625 -22.765625 L 12.34375 -8.859375 L 12.34375 0 L 7.546875 0 L 7.546875 -8.703125 L 0 -22.765625 L 5.234375 -22.765625 Z M 9.953125 -13.390625 "/></g></g></g><g fill="#ffacca" fill-opacity="1"><g transform="translate(115.292223, 177.125278)"><g><path d="M 9.5625 -14.546875 C 11.757812 -14.546875 13.507812 -13.925781 14.8125 -12.6875 C 16.113281 -11.457031 16.765625 -9.765625 16.765625 -7.609375 C 16.765625 -5.066406 15.976562 -3.109375 14.40625 -1.734375 C 12.84375 -0.367188 10.601562 0.3125 7.6875 0.3125 C 5.15625 0.3125 3.113281 -0.0976562 1.5625 -0.921875 L 1.5625 -5.078125 C 2.375 -4.640625 3.328125 -4.28125 4.421875 -4 C 5.515625 -3.726562 6.546875 -3.59375 7.515625 -3.59375 C 10.453125 -3.59375 11.921875 -4.796875 11.921875 -7.203125 C 11.921875 -9.503906 10.398438 -10.65625 7.359375 -10.65625 C 6.816406 -10.65625 6.210938 -10.597656 5.546875 -10.484375 C 4.878906 -10.378906 4.335938 -10.265625 3.921875 -10.140625 L 2.015625 -11.171875 L 2.859375 -22.765625 L 15.21875 -22.765625 L 15.21875 -18.6875 L 7.078125 -18.6875 L 6.671875 -14.21875 L 7.203125 -14.328125 C 7.835938 -14.472656 8.625 -14.546875 9.5625 -14.546875 Z M 9.5625 -14.546875 "/></g></g></g></svg>